<?xml version="1.0" encoding="utf-8"?>
<!-- Generator: Adobe Illustrator 26.0.2, SVG Export Plug-In . SVG Version: 6.00 Build 0)  -->
<svg version="1.1" id="Calque_1" xmlns="http://www.w3.org/2000/svg" xmlns:xlink="http://www.w3.org/1999/xlink" x="0px" y="0px"
	 viewBox="0 0 800 800" style="enable-background:new 0 0 800 800;" xml:space="preserve">
<style type="text/css">
	.st0{fill:url(#SVGID_1_);}
	.st1{fill:#002C85;}
	.st2{fill:#00FF00;}
	.st3{fill:url(#SVGID_00000018951992740854258030000009335630500056171407_);}
	.st4{fill:#FFFFFF;}
	.st5{fill:url(#SVGID_00000067931724728664608080000015762409872742992026_);}
	.st6{fill:#3030FF;}
	.st7{fill:#68279B;}
	.st8{fill:url(#SVGID_00000092447114394194530760000015097097739919804092_);}
	.st9{fill:#0B76FF;}
	.st10{fill:#331749;}
</style>
<linearGradient id="SVGID_1_" gradientUnits="userSpaceOnUse" x1="-2409.0903" y1="85.226" x2="-2409.0903" y2="571.2069">
	<stop  offset="0" style="stop-color:#00FF00"/>
	<stop  offset="0.1019" style="stop-color:#0DC745"/>
	<stop  offset="0.2083" style="stop-color:#199287"/>
	<stop  offset="0.305" style="stop-color:#2368BB"/>
	<stop  offset="0.3887" style="stop-color:#2A49E0"/>
	<stop  offset="0.4559" style="stop-color:#2E37F7"/>
	<stop  offset="0.4984" style="stop-color:#3030FF"/>
	<stop  offset="0.5421" style="stop-color:#2F36F8"/>
	<stop  offset="0.6072" style="stop-color:#2B46E4"/>
	<stop  offset="0.6855" style="stop-color:#2561C2"/>
	<stop  offset="0.7741" style="stop-color:#1C8794"/>
	<stop  offset="0.8715" style="stop-color:#11B659"/>
	<stop  offset="0.9747" style="stop-color:#03F013"/>
	<stop  offset="1" style="stop-color:#00FF00"/>
</linearGradient>
<path class="st0" d="M-2433.74,93.83l-166.73,96.11c-15.38,8.87-24.86,25.27-24.86,43.03l-0.01,191.01
	c0,17.76,9.48,34.17,24.86,43.03l166.9,96.2c15.24,8.78,33.98,8.85,49.28,0.19l166.27-94.18c15.57-8.82,25.19-25.33,25.19-43.22
	V232.95c0-17.74-9.47-34.14-24.83-43.01l-166.43-96.09C-2399.46,84.98-2418.38,84.97-2433.74,93.83z"/>
<g>
	<path class="st1" d="M-2629.33,603.13h31.74c3.61,0,7.2,0.36,10.77,1.09c3.57,0.73,6.76,2.01,9.57,3.85
		c2.81,1.84,5.08,4.3,6.82,7.39c1.73,3.09,2.6,6.96,2.6,11.6c0,4.51-1.11,8.48-3.32,11.92c-2.21,3.43-5.4,6.09-9.55,7.96l18.7,29.87
		h-28.45l-14.11-26.33h-0.73v26.33h-24.04V603.13z M-2605.49,634.25h4.85c0.83,0,1.74-0.07,2.74-0.21c1-0.14,1.93-0.43,2.79-0.88
		c0.86-0.45,1.58-1.07,2.17-1.87c0.59-0.8,0.88-1.86,0.88-3.17c0-1.32-0.24-2.36-0.72-3.12c-0.48-0.76-1.1-1.33-1.86-1.72
		c-0.76-0.38-1.58-0.62-2.48-0.73c-0.89-0.1-1.72-0.16-2.48-0.16h-5.89V634.25z"/>
	<path class="st1" d="M-2574.04,639.55c0-5.9,1.04-11.22,3.12-15.97c2.08-4.75,4.94-8.79,8.59-12.12s7.96-5.9,12.96-7.7
		c5-1.8,10.41-2.71,16.23-2.71s11.24,0.9,16.23,2.71c5,1.8,9.33,4.37,13.01,7.7c3.68,3.33,6.56,7.37,8.64,12.12
		c2.08,4.75,3.12,10.08,3.12,15.97c0,5.9-1.04,11.28-3.12,16.13c-2.08,4.86-4.96,9-8.64,12.44c-3.68,3.43-8.01,6.09-13.01,7.96
		c-5,1.87-10.41,2.81-16.23,2.81s-11.24-0.94-16.23-2.81c-5-1.87-9.31-4.53-12.96-7.96c-3.64-3.43-6.5-7.58-8.59-12.44
		C-2572.99,650.83-2574.04,645.45-2574.04,639.55z M-2547.71,639.55c0,2.43,0.36,4.65,1.09,6.66c0.73,2.01,1.73,3.75,3.02,5.2
		c1.28,1.46,2.83,2.58,4.63,3.38c1.8,0.8,3.75,1.2,5.83,1.2s4.01-0.4,5.78-1.2c1.77-0.8,3.31-1.92,4.63-3.38
		c1.32-1.46,2.34-3.19,3.07-5.2c0.73-2.01,1.09-4.23,1.09-6.66c0-2.36-0.36-4.53-1.09-6.5c-0.73-1.98-1.75-3.64-3.07-5
		c-1.32-1.35-2.86-2.41-4.63-3.17c-1.77-0.76-3.69-1.14-5.78-1.14s-4.02,0.38-5.83,1.14c-1.8,0.76-3.35,1.82-4.63,3.17
		c-1.28,1.35-2.29,3.02-3.02,5C-2547.34,635.03-2547.71,637.2-2547.71,639.55z"/>
	<path class="st1" d="M-2499.27,639.55c0-5.9,1.04-11.22,3.12-15.97c2.08-4.75,4.94-8.79,8.59-12.12s7.96-5.9,12.96-7.7
		c5-1.8,10.41-2.71,16.23-2.71s11.24,0.9,16.23,2.71c5,1.8,9.33,4.37,13.01,7.7c3.68,3.33,6.56,7.37,8.64,12.12
		c2.08,4.75,3.12,10.08,3.12,15.97c0,5.9-1.04,11.28-3.12,16.13c-2.08,4.86-4.96,9-8.64,12.44c-3.68,3.43-8.01,6.09-13.01,7.96
		c-5,1.87-10.41,2.81-16.23,2.81s-11.24-0.94-16.23-2.81c-5-1.87-9.31-4.53-12.96-7.96c-3.64-3.43-6.5-7.58-8.59-12.44
		C-2498.23,650.83-2499.27,645.45-2499.27,639.55z M-2472.94,639.55c0,2.43,0.36,4.65,1.09,6.66c0.73,2.01,1.73,3.75,3.02,5.2
		c1.28,1.46,2.83,2.58,4.63,3.38c1.8,0.8,3.75,1.2,5.83,1.2s4.01-0.4,5.78-1.2c1.77-0.8,3.31-1.92,4.63-3.38
		c1.32-1.46,2.34-3.19,3.07-5.2c0.73-2.01,1.09-4.23,1.09-6.66c0-2.36-0.36-4.53-1.09-6.5c-0.73-1.98-1.75-3.64-3.07-5
		c-1.32-1.35-2.86-2.41-4.63-3.17c-1.77-0.76-3.69-1.14-5.78-1.14s-4.02,0.38-5.83,1.14c-1.8,0.76-3.35,1.82-4.63,3.17
		c-1.28,1.35-2.29,3.02-3.02,5C-2472.58,635.03-2472.94,637.2-2472.94,639.55z"/>
	<path class="st1" d="M-2398.86,635.18l1.14,41.63h-23.1v-73.68h32.4l13.34,39.65h0.52l11.57-39.65h33.44v73.68h-24.14l0.73-41.42
		l-0.62-0.1l-13.74,41.52h-17.48l-13.53-41.63H-2398.86z"/>
	<path class="st2" d="M-2284.9,664.11h0.1l24.67-60.98h11.45v73.68h-7.49v-64h-0.21l-26.64,64h-3.96l-26.64-64h-0.21v64h-7.49
		v-73.68h11.45L-2284.9,664.11z"/>
	<path class="st2" d="M-2234.01,670.15h39.44v6.66h-46.94v-73.68h45.69v6.66h-38.19v25.29h35.7v6.66h-35.7V670.15z"/>
</g>
<linearGradient id="SVGID_00000108310825095237952590000001812149454281170318_" gradientUnits="userSpaceOnUse" x1="-2409.0903" y1="629.7982" x2="-2409.0903" y2="321.6752">
	<stop  offset="0" style="stop-color:#1B1464"/>
	<stop  offset="0.156" style="stop-color:#1B1763;stop-opacity:0.8304"/>
	<stop  offset="0.2803" style="stop-color:#19215E;stop-opacity:0.6952"/>
	<stop  offset="0.3937" style="stop-color:#183257;stop-opacity:0.572"/>
	<stop  offset="0.5006" style="stop-color:#154A4D;stop-opacity:0.4557"/>
	<stop  offset="0.603" style="stop-color:#116840;stop-opacity:0.3445"/>
	<stop  offset="0.7019" style="stop-color:#0D8E30;stop-opacity:0.2369"/>
	<stop  offset="0.7981" style="stop-color:#08BB1D;stop-opacity:0.1323"/>
	<stop  offset="0.8898" style="stop-color:#02ED08;stop-opacity:0.0326"/>
	<stop  offset="0.9198" style="stop-color:#00FF00;stop-opacity:0"/>
</linearGradient>
<path style="fill:url(#SVGID_00000108310825095237952590000001812149454281170318_);" d="M-2239.35,441.75L-2389,528.01
	c-12.54,7.23-27.99,7.22-40.52-0.01l-149.31-86.2c-8.32-4.8-8.31-16.81,0.01-21.6l149.65-86.26c12.54-7.23,27.99-7.22,40.52,0.01
	l149.31,86.2C-2231.03,424.95-2231.03,436.95-2239.35,441.75z"/>
<g>
	<polygon class="st1" points="-2322.94,447.62 -2451.63,372.84 -2483.55,323.14 -2354.86,397.93 	"/>
</g>
<path class="st4" d="M-2289.91,253.94c0.06,0.02,0.13,0.05,0.19,0.07c0.5,0.18,0.99,0.39,1.47,0.6c0.11,0.05,0.23,0.1,0.34,0.15
	c0.55,0.26,1.09,0.54,1.61,0.84l0,0c0,0,0,0,0,0l-128.69-74.79c-0.08-0.05-0.17-0.1-0.25-0.14c-0.44-0.25-0.9-0.48-1.36-0.7
	c-0.11-0.05-0.23-0.1-0.34-0.16c-0.19-0.09-0.37-0.18-0.56-0.26c-0.3-0.12-0.6-0.24-0.9-0.35c-0.06-0.02-0.13-0.05-0.19-0.07
	c-0.42-0.15-0.85-0.29-1.29-0.42c-0.13-0.04-0.25-0.06-0.38-0.1c-0.13-0.04-0.27-0.07-0.41-0.11c-0.58-0.15-1.17-0.28-1.77-0.38
	c0,0,0,0-0.01,0c-0.7-0.12-1.42-0.21-2.15-0.29c-0.2-0.02-0.4-0.04-0.6-0.05c-0.23-0.02-0.45-0.05-0.67-0.06
	c-0.35-0.02-0.7-0.03-1.05-0.04c-0.2-0.01-0.4-0.02-0.6-0.02c-0.72-0.01-1.45-0.01-2.19,0.03c-0.04,0-0.07,0.01-0.11,0.01
	c-0.2,0.01-0.4,0.03-0.6,0.04c-0.62,0.04-1.24,0.09-1.87,0.15c-0.3,0.03-0.6,0.08-0.9,0.11c-0.34,0.04-0.68,0.08-1.03,0.13
	c-0.18,0.03-0.36,0.07-0.54,0.1c-0.47,0.08-0.95,0.17-1.42,0.26c-0.46,0.09-0.92,0.18-1.39,0.29c-0.48,0.11-0.97,0.23-1.46,0.35
	c-0.3,0.08-0.59,0.13-0.89,0.22c-0.24,0.06-0.48,0.14-0.72,0.21c-0.23,0.06-0.46,0.13-0.69,0.2c-0.87,0.26-1.75,0.53-2.65,0.84
	c-1.11,0.38-2.23,0.79-3.34,1.2c-0.36,0.13-0.72,0.28-1.08,0.42c-0.76,0.29-1.52,0.59-2.29,0.9c-0.17,0.07-0.34,0.13-0.51,0.2
	c-0.2,0.08-0.41,0.18-0.61,0.26c-1.01,0.42-2.01,0.86-3.02,1.31c-0.29,0.13-0.58,0.25-0.86,0.38c-1.25,0.57-2.51,1.17-3.76,1.79
	c-0.28,0.14-0.56,0.28-0.84,0.42c-1.02,0.51-2.03,1.03-3.05,1.57c-0.35,0.19-0.71,0.38-1.07,0.57c-1.27,0.69-2.54,1.39-3.8,2.12
	l-71.35,41.2l128.69,74.79l71.35-41.2c1.27-0.73,2.54-1.43,3.8-2.12c0.35-0.19,0.71-0.38,1.06-0.57c1.02-0.54,2.04-1.07,3.05-1.57
	c0.28-0.14,0.56-0.28,0.83-0.42c1.25-0.62,2.51-1.21,3.76-1.79c0.29-0.13,0.58-0.26,0.86-0.38c1.01-0.45,2.02-0.89,3.02-1.31
	c0.37-0.16,0.75-0.31,1.12-0.47c0.76-0.31,1.53-0.61,2.29-0.91c0.36-0.14,0.72-0.28,1.07-0.42c1.11-0.42,2.23-0.82,3.34-1.21
	c0.89-0.31,1.77-0.58,2.65-0.84c0.23-0.07,0.46-0.13,0.68-0.2c0.54-0.15,1.08-0.29,1.62-0.43c0.49-0.12,0.98-0.25,1.46-0.35
	c0.47-0.1,0.93-0.2,1.39-0.29c0.48-0.09,0.95-0.18,1.42-0.26c0.53-0.09,1.05-0.16,1.57-0.23c0.3-0.04,0.6-0.08,0.9-0.11
	c0.63-0.07,1.25-0.12,1.87-0.15c0.2-0.01,0.4-0.03,0.6-0.04c0.78-0.04,1.55-0.05,2.31-0.03c0.2,0,0.4,0.01,0.6,0.02
	c0.58,0.02,1.16,0.05,1.73,0.1c0.2,0.02,0.4,0.03,0.6,0.05c0.73,0.07,1.45,0.16,2.15,0.29c0.6,0.1,1.19,0.24,1.77,0.38
	c0.14,0.03,0.27,0.07,0.4,0.11C-2291.01,253.57-2290.46,253.74-2289.91,253.94z"/>
<g>
	<path class="st2" d="M-2339.53,266.56c8.11-4.68,16.18-8.4,24.22-11.16c8.04-2.76,15.22-3.57,21.55-2.48
		c6.33,1.1,11.45,4.52,15.38,10.24c3.91,5.73,5.89,14.59,5.93,26.6c0.03,11.65-2.42,23.35-7.38,35.09
		c-4.95,11.74-12.09,22.73-21.4,32.95l42.25,52.89l-63.96,36.93l-31.92-49.69l-1.64,0.94l0.19,68.01l-54.04,31.2l-0.54-190.33
		L-2339.53,266.56z"/>
</g>
<g>
	<polygon class="st1" points="-2410.34,498.09 -2539.04,423.3 -2539.58,232.97 -2410.88,307.76 	"/>
</g>
<g>
	<path class="st1" d="M-2343.69,305.31c11.15-6.44,20.22-1.27,20.26,11.54c0.04,12.82-8.97,28.42-20.13,34.86
		c-11.15,6.44-20.22,1.27-20.25-11.55C-2363.85,327.36-2354.84,311.75-2343.69,305.31z"/>
</g>
<linearGradient id="SVGID_00000011722612244564240850000005495473527260607386_" gradientUnits="userSpaceOnUse" x1="402.0825" y1="103.5896" x2="402.0825" y2="589.5705">
	<stop  offset="0" style="stop-color:#662D91"/>
	<stop  offset="0.1459" style="stop-color:#512EBB"/>
	<stop  offset="0.2977" style="stop-color:#3F2FE0"/>
	<stop  offset="0.4207" style="stop-color:#3430F7"/>
	<stop  offset="0.4984" style="stop-color:#3030FF"/>
	<stop  offset="0.5561" style="stop-color:#312FF8"/>
	<stop  offset="0.6419" style="stop-color:#332CE4"/>
	<stop  offset="0.7452" style="stop-color:#3627C2"/>
	<stop  offset="0.8622" style="stop-color:#3B2095"/>
	<stop  offset="0.989" style="stop-color:#41185A"/>
	<stop  offset="1" style="stop-color:#421755"/>
</linearGradient>
<path style="fill:url(#SVGID_00000011722612244564240850000005495473527260607386_);" d="M377.44,112.19L210.71,208.3
	c-15.38,8.87-24.86,25.27-24.86,43.03l-0.01,191.01c0,17.76,9.48,34.17,24.86,43.03l166.9,96.2c15.24,8.78,33.98,8.85,49.28,0.19
	l166.27-94.18c15.57-8.82,25.19-25.33,25.19-43.22V251.31c0-17.74-9.47-34.14-24.83-43.01l-166.43-96.09
	C411.72,103.34,392.8,103.34,377.44,112.19z"/>
<path class="st6" d="M237.14,657.92c0-5.9,1.04-11.22,3.12-15.97c2.08-4.75,4.94-8.79,8.59-12.12s7.96-5.9,12.96-7.7
	c5-1.8,10.41-2.71,16.23-2.71s11.24,0.9,16.23,2.71c5,1.8,9.33,4.37,13.01,7.7c3.68,3.33,6.56,7.37,8.64,12.12
	c2.08,4.75,3.12,10.08,3.12,15.97c0,5.9-1.04,11.28-3.12,16.13c-2.08,4.86-4.96,9-8.64,12.44c-3.68,3.43-8.01,6.09-13.01,7.96
	c-5,1.87-10.41,2.81-16.23,2.81s-11.24-0.94-16.23-2.81c-5-1.87-9.31-4.53-12.96-7.96c-3.64-3.43-6.5-7.58-8.59-12.44
	C238.18,669.19,237.14,663.81,237.14,657.92z M263.47,657.92c0,2.43,0.36,4.65,1.09,6.66c0.73,2.01,1.73,3.75,3.02,5.2
	c1.28,1.46,2.83,2.58,4.63,3.38c1.8,0.8,3.75,1.2,5.83,1.2s4.01-0.4,5.78-1.2c1.77-0.8,3.31-1.92,4.63-3.38
	c1.32-1.46,2.34-3.19,3.07-5.2c0.73-2.01,1.09-4.23,1.09-6.66c0-2.36-0.36-4.53-1.09-6.5c-0.73-1.98-1.75-3.64-3.07-5
	c-1.32-1.35-2.86-2.41-4.63-3.17c-1.77-0.76-3.69-1.14-5.78-1.14s-4.02,0.38-5.83,1.14c-1.8,0.76-3.35,1.82-4.63,3.17
	c-1.28,1.35-2.29,3.02-3.02,5C263.83,653.39,263.47,655.56,263.47,657.92z"/>
<path class="st6" d="M311.9,657.92c0-5.9,1.04-11.22,3.12-15.97c2.08-4.75,4.94-8.79,8.59-12.12s7.96-5.9,12.96-7.7
	c5-1.8,10.41-2.71,16.23-2.71s11.24,0.9,16.23,2.71c5,1.8,9.33,4.37,13.01,7.7c3.68,3.33,6.56,7.37,8.64,12.12
	c2.08,4.75,3.12,10.08,3.12,15.97c0,5.9-1.04,11.28-3.12,16.13c-2.08,4.86-4.96,9-8.64,12.44c-3.68,3.43-8.01,6.09-13.01,7.96
	c-5,1.87-10.41,2.81-16.23,2.81s-11.24-0.94-16.23-2.81c-5-1.87-9.31-4.53-12.96-7.96c-3.64-3.43-6.5-7.58-8.59-12.44
	C312.94,669.19,311.9,663.81,311.9,657.92z M338.23,657.92c0,2.43,0.36,4.65,1.09,6.66c0.73,2.01,1.73,3.75,3.02,5.2
	c1.28,1.46,2.83,2.58,4.63,3.38c1.8,0.8,3.75,1.2,5.83,1.2s4.01-0.4,5.78-1.2c1.77-0.8,3.31-1.92,4.63-3.38
	c1.32-1.46,2.34-3.19,3.07-5.2c0.73-2.01,1.09-4.23,1.09-6.66c0-2.36-0.36-4.53-1.09-6.5c-0.73-1.98-1.75-3.64-3.07-5
	c-1.32-1.35-2.86-2.41-4.63-3.17c-1.77-0.76-3.69-1.14-5.78-1.14s-4.02,0.38-5.83,1.14c-1.8,0.76-3.35,1.82-4.63,3.17
	c-1.28,1.35-2.29,3.02-3.02,5C338.59,653.39,338.23,655.56,338.23,657.92z"/>
<path class="st6" d="M412.32,653.55l1.14,41.63h-23.1v-73.68h32.4l13.34,39.65h0.52l11.57-39.65h33.44v73.68h-24.14l0.73-41.42
	l-0.62-0.1l-13.74,41.52h-17.48l-13.53-41.63H412.32z"/>
<path class="st7" d="M526.27,682.48h0.1l24.67-60.98h11.45v73.68h-7.49v-64h-0.21l-26.64,64h-3.96l-26.64-64h-0.21v64h-7.49v-73.68
	h11.45L526.27,682.48z"/>
<linearGradient id="SVGID_00000034786629474706273400000014387582441476510116_" gradientUnits="userSpaceOnUse" x1="402.0825" y1="133.7528" x2="402.0825" y2="545.9872">
	<stop  offset="0" style="stop-color:#662D91"/>
	<stop  offset="0.0726" style="stop-color:#512EBB"/>
	<stop  offset="0.1482" style="stop-color:#3F2FE0"/>
	<stop  offset="0.2094" style="stop-color:#3430F7"/>
	<stop  offset="0.2481" style="stop-color:#3030FF"/>
	<stop  offset="0.3638" style="stop-color:#302DE9"/>
	<stop  offset="0.6045" style="stop-color:#3125B1"/>
	<stop  offset="0.9473" style="stop-color:#331957"/>
	<stop  offset="1" style="stop-color:#331749"/>
</linearGradient>
<path style="fill:url(#SVGID_00000034786629474706273400000014387582441476510116_);" d="M571.82,460.11l-149.65,86.26
	c-12.54,7.23-27.99,7.22-40.52-0.01l-149.31-86.2c-8.32-4.8-8.31-16.81,0.01-21.6l149.65-86.26c12.54-7.23,27.99-7.22,40.52,0.01
	l149.31,86.2C580.14,443.31,580.14,455.32,571.82,460.11z"/>
<g>
	<polygon class="st1" points="488.24,465.99 359.54,391.2 327.62,341.51 456.31,416.29 	"/>
</g>
<path class="st9" d="M521.26,272.3c0.06,0.02,0.13,0.05,0.19,0.07c0.5,0.18,0.99,0.39,1.47,0.6c0.11,0.05,0.23,0.1,0.34,0.15
	c0.55,0.26,1.09,0.54,1.61,0.84l0,0c0,0,0,0,0,0l-128.69-74.79c-0.08-0.05-0.17-0.1-0.25-0.14c-0.44-0.25-0.9-0.48-1.36-0.7
	c-0.11-0.05-0.23-0.1-0.34-0.16c-0.19-0.09-0.37-0.18-0.56-0.26c-0.3-0.12-0.6-0.24-0.9-0.35c-0.06-0.02-0.13-0.05-0.19-0.07
	c-0.42-0.15-0.85-0.29-1.29-0.42c-0.13-0.04-0.25-0.06-0.38-0.1c-0.13-0.04-0.27-0.07-0.41-0.11c-0.58-0.15-1.17-0.28-1.77-0.38
	c0,0,0,0-0.01,0c-0.7-0.12-1.42-0.21-2.15-0.29c-0.2-0.02-0.4-0.04-0.6-0.05c-0.23-0.02-0.45-0.05-0.67-0.06
	c-0.35-0.02-0.7-0.03-1.05-0.04c-0.2-0.01-0.4-0.02-0.6-0.02c-0.72-0.01-1.45-0.01-2.19,0.03c-0.04,0-0.07,0.01-0.11,0.01
	c-0.2,0.01-0.4,0.03-0.6,0.04c-0.62,0.04-1.24,0.09-1.87,0.15c-0.3,0.03-0.6,0.08-0.9,0.11c-0.34,0.04-0.68,0.08-1.03,0.13
	c-0.18,0.03-0.36,0.07-0.54,0.1c-0.47,0.08-0.95,0.17-1.42,0.26c-0.46,0.09-0.92,0.18-1.39,0.29c-0.48,0.11-0.97,0.23-1.46,0.35
	c-0.3,0.08-0.59,0.13-0.89,0.22c-0.24,0.06-0.48,0.14-0.72,0.21c-0.23,0.06-0.46,0.13-0.69,0.2c-0.87,0.26-1.75,0.53-2.65,0.84
	c-1.11,0.38-2.23,0.79-3.34,1.2c-0.36,0.13-0.72,0.28-1.08,0.42c-0.76,0.29-1.52,0.59-2.29,0.9c-0.17,0.07-0.34,0.13-0.51,0.2
	c-0.2,0.08-0.41,0.18-0.61,0.26c-1.01,0.42-2.01,0.86-3.02,1.31c-0.29,0.13-0.58,0.25-0.86,0.38c-1.25,0.57-2.51,1.17-3.76,1.79
	c-0.28,0.14-0.56,0.28-0.84,0.42c-1.02,0.51-2.03,1.03-3.05,1.57c-0.35,0.19-0.71,0.38-1.07,0.57c-1.27,0.69-2.54,1.39-3.8,2.12
	l-71.35,41.2l128.69,74.79l71.35-41.2c1.27-0.73,2.54-1.43,3.8-2.12c0.35-0.19,0.71-0.38,1.06-0.57c1.02-0.54,2.04-1.07,3.05-1.57
	c0.28-0.14,0.56-0.28,0.83-0.42c1.26-0.62,2.51-1.21,3.76-1.79c0.29-0.13,0.58-0.26,0.86-0.38c1.01-0.45,2.02-0.89,3.02-1.31
	c0.37-0.16,0.75-0.31,1.12-0.47c0.76-0.31,1.53-0.61,2.29-0.91c0.36-0.14,0.72-0.28,1.07-0.42c1.11-0.42,2.23-0.82,3.34-1.21
	c0.89-0.31,1.77-0.58,2.65-0.84c0.23-0.07,0.46-0.13,0.68-0.2c0.54-0.15,1.08-0.29,1.62-0.43c0.49-0.12,0.98-0.25,1.46-0.35
	c0.47-0.1,0.93-0.2,1.39-0.29c0.48-0.09,0.95-0.18,1.42-0.26c0.53-0.09,1.05-0.16,1.57-0.23c0.3-0.04,0.6-0.08,0.9-0.11
	c0.63-0.07,1.25-0.12,1.87-0.15c0.2-0.01,0.4-0.03,0.6-0.04c0.78-0.04,1.55-0.05,2.31-0.03c0.2,0,0.4,0.01,0.6,0.02
	c0.58,0.02,1.16,0.05,1.73,0.1c0.2,0.02,0.4,0.03,0.6,0.05c0.73,0.07,1.45,0.16,2.15,0.29c0.6,0.1,1.19,0.24,1.77,0.38
	c0.14,0.03,0.27,0.07,0.4,0.11C520.16,271.94,520.72,272.11,521.26,272.3z"/>
<g>
	<path class="st4" d="M471.64,284.93c8.11-4.68,16.18-8.4,24.22-11.16c8.04-2.76,15.22-3.57,21.55-2.48
		c6.33,1.1,11.45,4.52,15.38,10.24c3.91,5.73,5.89,14.59,5.93,26.6c0.03,11.65-2.42,23.35-7.38,35.09
		c-4.95,11.74-12.09,22.73-21.4,32.95l42.25,52.89l-63.96,36.93l-31.92-49.69l-1.64,0.94l0.19,68.01l-54.04,31.2l-0.54-190.33
		L471.64,284.93z"/>
</g>
<g>
	<polygon class="st10" points="400.83,516.45 272.13,441.66 271.59,251.33 400.29,326.12 	"/>
</g>
<g>
	<path class="st1" d="M467.48,323.68c11.15-6.44,20.22-1.27,20.26,11.54c0.04,12.82-8.97,28.42-20.13,34.86
		c-11.15,6.44-20.22,1.27-20.25-11.55C447.32,345.72,456.33,330.11,467.48,323.68z"/>
</g>
<path class="st6" d="M181.85,621.49h31.74c3.61,0,7.2,0.36,10.77,1.09c3.57,0.73,6.76,2.01,9.57,3.85c2.81,1.84,5.08,4.3,6.82,7.39
	c1.73,3.09,2.6,6.96,2.6,11.6c0,4.51-1.11,8.48-3.32,11.92c-2.21,3.43-5.4,6.09-9.55,7.96l18.7,29.87h-28.45l-14.11-26.33h-0.73
	v26.33h-24.04V621.49z M211.49,638.16c-4.41,0-7.98,3.78-7.98,8.44s3.57,8.44,7.98,8.44s7.98-3.78,7.98-8.44
	S215.89,638.16,211.49,638.16z"/>
<g>
	<path class="st7" d="M633.17,680.04c-3.57,5.4-7.99,9.27-13.23,11.63c-5.25,2.34-11.04,3.51-17.37,3.51
		c-5.4,0-10.31-0.91-14.69-2.75c-4.38-1.83-8.15-4.41-11.32-7.72c-3.16-3.31-5.59-7.25-7.27-11.78c-1.68-4.54-2.51-9.56-2.51-15.08
		c0-5.3,0.86-10.2,2.59-14.68c1.74-4.49,4.18-8.39,7.34-11.7c3.16-3.32,6.88-5.93,11.17-7.81c4.28-1.89,9.03-2.84,14.23-2.84
		c5.4,0,10.17,0.95,14.3,2.84c4.13,1.88,7.59,4.38,10.41,7.49c2.8,3.11,4.92,6.65,6.35,10.63c1.42,3.97,2.14,8,2.14,12.09v6.42
		h-59.36c0,1.94,0.39,4.41,1.15,7.42c0.76,3,2.17,5.94,4.21,8.79c2.04,2.86,4.77,5.3,8.18,7.34c3.42,2.04,7.83,3.06,13.23,3.06
		c4.69,0,9.24-1.12,13.62-3.36c4.38-2.25,7.74-5.3,10.1-9.19L633.17,680.04z M626.12,652.04c0-3.16-0.63-6.11-1.9-8.86
		c-1.28-2.76-3.01-5.18-5.2-7.27s-4.79-3.75-7.81-4.98c-3.01-1.22-6.19-1.83-9.56-1.83c-4.99,0-9.15,1.02-12.46,3.06
		c-3.32,2.04-5.95,4.38-7.88,7.03c-1.94,2.65-3.31,5.23-4.13,7.73c-0.82,2.49-1.22,4.21-1.22,5.12H626.12z"/>
</g>
</svg>
